<svg width="20" height="16" viewBox="0 0 20 16" fill="none" xmlns="http://www.w3.org/2000/svg">
<path d="M16.9309 1.26369C15.6562 0.67881 14.2892 0.247872 12.86 0.00103567C12.834 -0.00372996 12.8079 0.0081841 12.7945 0.0319732C12.6187 0.344669 12.424 0.75256 12.2876 1.07319C10.7504 0.843029 9.22102 0.843029 7.71531 1.07319C7.57891 0.745451 7.37711 0.344669 7.20051 0.0319732C7.18711 0.00896536 7.16109 -0.00294871 7.13508 0.00103567C5.70664 0.247052 4.33968 0.67799 3.06413 1.26369C3.05308 1.26846 3.04363 1.27639 3.03734 1.2867C0.444522 5.16034 -0.265791 8.93878 0.0826467 12.6703C0.0842092 12.6886 0.0944827 12.706 0.108662 12.7172C1.81933 13.9735 3.47644 14.7361 5.10273 15.2417C5.12875 15.2496 5.15632 15.2401 5.17289 15.2187C5.55758 14.6933 5.90051 14.1394 6.19453 13.5568C6.21187 13.5227 6.19531 13.4822 6.15984 13.4687C5.6159 13.2624 5.09797 13.0108 4.59972 12.7252C4.56031 12.7021 4.55714 12.6458 4.59343 12.6188C4.69828 12.5402 4.80316 12.4585 4.90328 12.3759C4.9214 12.3609 4.94664 12.3577 4.96793 12.3672C8.24106 13.8616 11.7846 13.8616 15.0191 12.3672C15.0404 12.3569 15.0656 12.3601 15.0845 12.3751C15.1847 12.4577 15.2895 12.5402 15.3952 12.6187C15.4314 12.6457 15.429 12.7021 15.3897 12.7251C14.8914 13.0164 14.3735 13.2624 13.8288 13.4679C13.7933 13.4814 13.7775 13.5227 13.7949 13.5568C14.0952 14.1385 14.4382 14.6925 14.8158 15.2178C14.8315 15.2401 14.8599 15.2496 14.8859 15.2416C16.5201 14.7361 18.1772 13.9734 19.8879 12.7171C19.9029 12.706 19.9123 12.6894 19.9139 12.6711C20.3309 8.35702 19.2154 4.60956 16.9568 1.28748C16.9514 1.27639 16.9419 1.26846 16.9309 1.26369ZM6.6834 10.3982C5.69797 10.3982 4.88597 9.49351 4.88597 8.38241C4.88597 7.27136 5.68218 6.36663 6.6834 6.36663C7.69242 6.36663 8.49656 7.27929 8.48078 8.38241C8.48078 9.49351 7.68453 10.3982 6.6834 10.3982ZM13.329 10.3982C12.3436 10.3982 11.5316 9.49351 11.5316 8.38241C11.5316 7.27136 12.3278 6.36663 13.329 6.36663C14.3381 6.36663 15.1422 7.27929 15.1264 8.38241C15.1264 9.49351 14.3381 10.3982 13.329 10.3982Z" fill="white"/>
</svg>
