<svg width="25" height="30" viewBox="0 0 25 30" fill="none" xmlns="http://www.w3.org/2000/svg">
<path d="M5.49323 19.8557L5.26165 23.113C5.59298 23.113 5.73648 22.9707 5.90857 22.7997L7.46198 21.3152L10.6808 23.6724C11.2711 24.0014 11.6871 23.8282 11.8463 23.1293L13.9591 13.229L13.9597 13.2284C14.147 12.3557 13.6441 12.0145 13.069 12.2286L0.649815 16.9833C-0.197768 17.3123 -0.184935 17.7848 0.505732 17.9989L3.68082 18.9865L11.0559 14.3717C11.403 14.1419 11.7186 14.2691 11.459 14.4989L5.49323 19.8557Z" fill="white"/>
<path d="M7.79639 0L8.92887 3.33848H12.5928L9.63091 5.40538L10.7634 8.74386L7.79639 6.68186L4.82939 8.74386L5.967 5.40538L3 3.33848H6.66391L7.79639 0Z" fill="white"/>
<path d="M17.3043 29.5L15.8696 27.7342L13.7473 28.5577L14.9783 26.6476L13.5436 24.8734L15.7423 25.4591L16.9817 23.5491L17.1005 25.8242L19.3077 26.4099L17.177 27.2249L17.3043 29.5Z" fill="white"/>
<path d="M20.1566 24.3215L20.8357 22.1483L18.9766 20.8324L21.2517 20.7985L21.9223 18.6252L22.6609 20.7815L24.936 20.756L23.1108 22.1143L23.8409 24.2706L21.9817 22.9547L20.1566 24.3215Z" fill="white"/>
<path d="M24.0023 11.7915L23.0005 13.8374L24.6305 15.4248L22.3808 15.1022L21.3791 17.1397L20.9886 14.8985L18.7305 14.5759L20.7509 13.5148L20.3604 11.2651L21.9903 12.8526L24.0023 11.7915Z" fill="white"/>
<path d="M17.3637 5.60278L17.1939 7.8694L19.3077 8.7268L17.092 9.27011L16.9307 11.5452L15.7337 9.60968L13.5181 10.153L14.9867 8.4127L13.7812 6.48566L15.895 7.34307L17.3637 5.60278Z" fill="white"/>
</svg>
