<svg width="1440" height="766" viewBox="0 0 1440 766" fill="none" xmlns="http://www.w3.org/2000/svg">
<g style="mix-blend-mode:multiply" opacity="0.3">
<path d="M919 10V355.5L1015 451.5V764.5H1136H1287.5V723H1439" stroke="#2FB2FF" stroke-width="2" stroke-linecap="round"/>
</g>
<g style="mix-blend-mode:multiply" opacity="0.3">
<path d="M-1 111C-1.55228 111 -2 110.552 -2 110C-2 109.448 -1.55228 109 -1 109L-1 111ZM284.5 110L284.5 109L284.871 109L285.152 109.242L284.5 110ZM570.5 356L570.5 357L570.129 357L569.848 356.758L570.5 356ZM1083 355L1084 355L1084 357L1083 357L1083 355ZM-1 109L284.5 109L284.5 111L-1 111L-1 109ZM285.152 109.242L571.152 355.242L569.848 356.758L283.848 110.758L285.152 109.242ZM570.5 355L1083 355L1083 357L570.5 357L570.5 355Z" fill="#2FB2FF"/>
</g>
<g style="mix-blend-mode:multiply" opacity="0.3">
<path d="M1083 511C1083.55 511 1084 510.552 1084 510C1084 509.448 1083.55 509 1083 509L1083 511ZM797.5 510L797.5 509L797.129 509L796.848 509.242L797.5 510ZM511.5 756L511.5 757L511.871 757L512.152 756.758L511.5 756ZM-1.00001 755L-2.00001 755L-2.00001 757L-1.00001 757L-1.00001 755ZM1083 509L797.5 509L797.5 511L1083 511L1083 509ZM796.848 509.242L510.848 755.242L512.152 756.758L798.152 510.758L796.848 509.242ZM511.5 755L-1.00001 755L-1.00001 757L511.5 757L511.5 755Z" fill="#2FB2FF"/>
</g>
<g style="mix-blend-mode:multiply" opacity="0.3">
<path d="M1440.5 159.5C1441.05 159.5 1441.5 159.052 1441.5 158.5C1441.5 157.948 1441.05 157.5 1440.5 157.5V159.5ZM1149.5 158.5V157.5H1148.5V158.5H1149.5ZM1149.5 410H1148.5V410.449L1148.84 410.748L1149.5 410ZM1239 489.5H1240V489.051L1239.66 488.752L1239 489.5ZM1238 762.5V763.5H1240V762.5H1238ZM1440.5 157.5H1149.5V159.5H1440.5V157.5ZM1148.5 158.5V410H1150.5V158.5H1148.5ZM1148.84 410.748L1238.34 490.248L1239.66 488.752L1150.16 409.252L1148.84 410.748ZM1238 489.5V762.5H1240V489.5H1238Z" fill="#2FB2FF"/>
</g>
<rect x="99" y="343" width="8" height="8" fill="#FF62FA"/>
<rect x="239" y="723" width="8" height="8" fill="#FF62FA"/>
<rect x="1315" y="383" width="8" height="8" fill="#FF62FA"/>
<rect x="59" y="597" width="8" height="8" fill="#FF62FA"/>
<rect x="1081" y="617" width="8" height="8" fill="#FF62FA"/>
<rect x="741" y="30" width="8" height="8" fill="#FF62FA"/>
<rect x="22" y="101" width="8" height="8" fill="#FF62FA"/>
<rect x="1422" y="139" width="18" height="20.25" fill="#FF62FA"/>
<rect x="436" y="296" width="18" height="20.25" fill="#FF62FA"/>
<rect x="1037" y="731" width="8" height="8" fill="#FF62FA"/>
</svg>
